<svg xmlns="http://www.w3.org/2000/svg" xmlns:xlink="http://www.w3.org/1999/xlink" width="522" height="330" viewBox="0 0 522 330"><title>facets-illus</title><defs><rect id="a" width="330" height="324" rx="4"/><filter id="e" width="200%" height="200%" x="-50%" y="-50%" filterUnits="objectBoundingBox"><feMorphology in="SourceAlpha" operator="dilate" radius="1" result="shadowSpreadOuter1"/><feOffset dy="2" in="shadowSpreadOuter1" result="shadowOffsetOuter1"/><feGaussianBlur in="shadowOffsetOuter1" result="shadowBlurOuter1" stdDeviation="1"/><feComposite in="shadowBlurOuter1" in2="SourceAlpha" operator="out" result="shadowBlurOuter1"/><feColorMatrix in="shadowBlurOuter1" values="0 0 0 0 0 0 0 0 0 0 0 0 0 0 0 0 0 0 0.1 0"/></filter><mask id="f" width="332" height="326" x="-1" y="-1"><path fill="#fff" d="M-1-1h332v326H-1z"/><use xlink:href="#a"/></mask><linearGradient id="h" x1="50%" x2="50%" y1="0%" y2="100%"><stop offset="0%" stop-color="#2B91FC"/><stop offset="100%" stop-color="#2D91FC"/></linearGradient><path id="b" d="M0 3.003A3.002 3.002 0 0 1 3.003 0h7.994A3.002 3.002 0 0 1 14 3.003v7.994A3.002 3.002 0 0 1 10.997 14H3.003A3.002 3.002 0 0 1 0 10.997V3.003z"/><mask id="i" width="14" height="14" x="0" y="0" fill="#fff"><use xlink:href="#b"/></mask><path id="k" d="M3.9 7.909l2.102 2.385 4.23-6.534"/><filter id="j" width="200%" height="200%" x="-50%" y="-50%" filterUnits="objectBoundingBox"><feMorphology in="SourceAlpha" operator="dilate" radius=".75" result="shadowSpreadOuter1"/><feOffset dy="1" in="shadowSpreadOuter1" result="shadowOffsetOuter1"/><feMorphology in="SourceAlpha" radius="1" result="shadowInner"/><feOffset dy="1" in="shadowInner" result="shadowInner"/><feComposite in="shadowOffsetOuter1" in2="shadowInner" operator="out" result="shadowOffsetOuter1"/><feGaussianBlur in="shadowOffsetOuter1" result="shadowBlurOuter1" stdDeviation=".5"/><feColorMatrix in="shadowBlurOuter1" values="0 0 0 0 0 0 0 0 0 0 0 0 0 0 0 0 0 0 0.196841033 0"/></filter><linearGradient id="m" x1="50%" x2="50%" y1="0%" y2="100%"><stop offset="0%" stop-color="#AEAEAE"/><stop offset="100%" stop-color="silver"/></linearGradient><rect id="c" width="14" height="14" rx="3"/><filter id="l" width="200%" height="200%" x="-50%" y="-50%" filterUnits="objectBoundingBox"><feGaussianBlur in="SourceAlpha" result="shadowBlurInner1" stdDeviation=".5"/><feOffset dy="1" in="shadowBlurInner1" result="shadowOffsetInner1"/><feComposite in="shadowOffsetInner1" in2="SourceAlpha" k2="-1" k3="1" operator="arithmetic" result="shadowInnerInner1"/><feColorMatrix in="shadowInnerInner1" values="0 0 0 0 0 0 0 0 0 0 0 0 0 0 0 0 0 0 0.196246603 0"/></filter><mask id="n" width="14" height="14" x="0" y="0" fill="#fff"><use xlink:href="#c"/></mask><rect id="d" width="14" height="14" rx="3"/><filter id="o" width="200%" height="200%" x="-50%" y="-50%" filterUnits="objectBoundingBox"><feGaussianBlur in="SourceAlpha" result="shadowBlurInner1" stdDeviation=".5"/><feOffset dy="1" in="shadowBlurInner1" result="shadowOffsetInner1"/><feComposite in="shadowOffsetInner1" in2="SourceAlpha" k2="-1" k3="1" operator="arithmetic" result="shadowInnerInner1"/><feColorMatrix in="shadowInnerInner1" values="0 0 0 0 0 0 0 0 0 0 0 0 0 0 0 0 0 0 0.196246603 0"/></filter><mask id="p" width="14" height="14" x="0" y="0" fill="#fff"><use xlink:href="#d"/></mask></defs><g fill="none" fill-rule="evenodd"><g transform="translate(189 1)"><mask id="g" fill="#fff"><use xlink:href="#a"/></mask><use fill="#000" filter="url(#e)" xlink:href="#a"/><use fill="#FFF" xlink:href="#a"/><use stroke="#F7F7FF" stroke-width="2" mask="url(#f)" xlink:href="#a"/><text fill="#3369E7" font-family="OpenSans-Semibold, Open Sans" font-size="14" font-weight="500" mask="url(#g)"><tspan x="12" y="27">Deep linking &amp; search in iOS 9 will change ev..</tspan></text><text fill="#9D9DBD" font-family="OpenSans, Open Sans" font-size="12" mask="url(#g)"><tspan x="12" y="48">The holy grail for any investor is to discover the next G...</tspan></text><text fill="#3369E7" font-family="OpenSans-Semibold, Open Sans" font-size="14" font-weight="500" mask="url(#g)"><tspan x="12" y="92">Next-level searching in Slack</tspan></text><text fill="#9D9DBD" font-family="OpenSans, Open Sans" font-size="12" mask="url(#g)"><tspan x="12" y="113">Day to day productivity is one thing. Having a long-ter...</tspan></text><text fill="#3369E7" font-family="OpenSans-Semibold, Open Sans" font-size="14" font-weight="500" mask="url(#g)"><tspan x="12" y="157">How Google Is Taking Search Outside the Box</tspan></text><text fill="#9D9DBD" font-family="OpenSans, Open Sans" font-size="12" mask="url(#g)"><tspan x="12" y="178">The I/O conference had virtual reality, photos and elec...</tspan></text><text fill="#3369E7" font-family="OpenSans-Semibold, Open Sans" font-size="14" font-weight="500" mask="url(#g)"><tspan x="12" y="222">A painstakingly crafted search for Hearthsto..</tspan></text><text fill="#9D9DBD" font-family="OpenSans, Open Sans" font-size="12" mask="url(#g)"><tspan x="12" y="243">Hearthstone’s popularity is stunning. Is it the worthy...</tspan></text><text fill="#3369E7" font-family="OpenSans-Semibold, Open Sans" font-size="14" font-weight="500" mask="url(#g)"><tspan x="12" y="287">A painstakingly crafted search for Hearthsto..</tspan></text><text fill="#9D9DBD" font-family="OpenSans, Open Sans" font-size="12" mask="url(#g)"><tspan x="12" y="308">Hearthstone’s popularity is stunning. Is it the worthy...</tspan></text><path fill="#D8D8D8" d="M0 64h330v1H0zM0 129h330v1H0zM0 194h330v1H0zM0 259h330v1H0z" mask="url(#g)" opacity=".5"/></g><text fill="#182359" font-family="OpenSans, Open Sans" font-size="12" transform="translate(0 17)"><tspan x="0" y="13">TYPE</tspan></text><text fill="#262626" font-family="OpenSans, Open Sans" font-size="13" transform="translate(0 17)"><tspan x="20" y="43">Article</tspan></text><g transform="translate(0 49)"><use fill="#3B99FC" stroke="url(#h)" mask="url(#i)" xlink:href="#b"/><use fill="#000" filter="url(#j)" xlink:href="#k"/><use stroke="#FFF" stroke-linecap="round" stroke-linejoin="round" stroke-width="1.5" xlink:href="#k"/></g><g transform="translate(0 75)"><use fill="#FFF" xlink:href="#c"/><use fill="#000" filter="url(#l)" xlink:href="#c"/><use stroke="url(#m)" mask="url(#n)" xlink:href="#c"/></g><g transform="translate(0 101)"><use fill="#FFF" xlink:href="#d"/><use fill="#000" filter="url(#o)" xlink:href="#d"/><use stroke="url(#m)" mask="url(#p)" xlink:href="#d"/></g><text fill="#262626" font-family="OpenSans, Open Sans" font-size="13" transform="translate(0 17)"><tspan x="20" y="69">Video</tspan></text><text fill="#262626" font-family="OpenSans, Open Sans" font-size="13" transform="translate(0 17)"><tspan x="20" y="95">Categorie</tspan></text><text fill="#000" fill-opacity=".5" font-family="OpenSans, Open Sans" font-size="11" transform="translate(0 17)"><tspan x="130.131" y="43">236</tspan></text><text fill="#000" fill-opacity=".5" font-family="OpenSans, Open Sans" font-size="11" transform="translate(0 17)"><tspan x="136.421" y="69">48</tspan></text><text fill="#000" fill-opacity=".5" font-family="OpenSans, Open Sans" font-size="11" transform="translate(0 17)"><tspan x="136.421" y="95">12</tspan></text><g><text fill="#182359" font-family="OpenSans, Open Sans" font-size="12" transform="translate(0 146)"><tspan x="0" y="13">TAGS</tspan></text><g transform="translate(0 175)"><rect width="68" height="34" fill="#FFF" rx="3"/><text fill="#262626" font-family="OpenSans, Open Sans" font-size="13"><tspan x="12" y="22">Startup</tspan></text></g><g transform="translate(0 217)"><rect width="131" height="34" fill="#FFF" rx="3"/><text fill="#262626" font-family="OpenSans, Open Sans" font-size="13"><tspan x="12" y="22">Entrepreneurship</tspan></text></g><g transform="translate(0 259)"><rect width="66" height="34" fill="#FFF" rx="3"/><text fill="#262626" font-family="OpenSans, Open Sans" font-size="13"><tspan x="12" y="22">Search</tspan></text></g><g transform="translate(73 259)"><rect width="66" height="34" fill="#FFF" rx="3"/><text fill="#262626" font-family="OpenSans, Open Sans" font-size="13"><tspan x="12" y="22">Design</tspan></text></g><g transform="translate(75 175)"><rect width="85" height="34" fill="#FFF" rx="3"/><text fill="#262626" font-family="OpenSans, Open Sans" font-size="13"><tspan x="12" y="22">Marketing</tspan></text></g></g></g></svg>